<svg width="64" height="62" viewBox="0 0 64 62" fill="none" xmlns="http://www.w3.org/2000/svg">
<path d="M59.7946 22.7126C61.8746 21.9683 62.9573 19.6787 62.213 17.5987C61.4687 15.5188 59.1792 14.436 57.0992 15.1803L59.7946 22.7126ZM1.50411 36.3187C0.55964 38.3158 1.41294 40.7003 3.41 41.6448L35.9541 57.0358C37.9511 57.9803 40.3357 57.127 41.2802 55.13C42.2247 53.1329 41.3714 50.7483 39.3743 49.8038L10.4462 36.1229L24.1272 7.19486C25.0716 5.19779 24.2183 2.81321 22.2213 1.86874C20.2242 0.924268 17.8396 1.77756 16.8951 3.77463L1.50411 36.3187ZM58.4469 18.9464L57.0992 15.1803L3.77245 34.2627L5.12012 38.0288L6.46779 41.7949L59.7946 22.7126L58.4469 18.9464Z" fill="white"/>
</svg>
