<svg width="32" height="40" viewBox="0 0 32 40" fill="none" xmlns="http://www.w3.org/2000/svg">
<path d="M27.4384 5.05155L27.3361 4.94919C24.4703 1.98109 20.6835 0.241211 16.3849 0.241211C12.0863 0.241211 8.29948 1.98109 5.43374 4.84683L5.33139 5.05155C2.56805 7.91724 0.828125 11.9088 0.828125 16.3097C0.828125 20.7106 2.56801 24.7022 5.33139 27.5679L5.43374 27.6703L16.3849 39.1332L27.3361 27.7726L27.4384 27.6703C30.2018 24.8046 31.9417 20.813 31.9417 16.3097C31.9417 11.9088 30.2018 7.91724 27.4384 5.05155ZM16.3849 20.9154C13.4168 20.9154 10.9605 18.3567 10.9605 15.2863C10.9605 13.9558 11.3699 12.8299 12.0863 11.9088C13.1098 10.5783 14.645 9.65717 16.3849 9.65717C19.353 9.65717 21.8093 12.2158 21.8093 15.2862C21.8093 18.3567 19.353 20.9154 16.3849 20.9154Z" fill="white"/>
</svg>
